<?xml version="1.0" encoding="UTF-8"?>
<svg id="Layer_1" data-name="Layer 1" xmlns="http://www.w3.org/2000/svg" version="1.1" viewBox="0 0 500 176">
  <defs>
    <style>
      .cls-1 {
        fill: #e7e7e7;
        stroke-width: 0px;
      }
    </style>
  </defs>
  <g>
    <polygon class="cls-1" points="143 16.1 129.3 67.8 100.8 67.8 114.5 16.1 75 16.1 36.7 160.1 76.3 160.1 90.9 105.1 119.4 105.1 104.8 160.1 144.3 160.1 182.5 16.1 143 16.1"/>
    <path class="cls-1" d="M256.8,59.4c0-30.6-19.7-42.2-45.4-43.4-6-.3-14.6-.2-20.5.5-4.2,15.6-6.4,23.9-10.1,37.6,6.4-.8,11.1-1.2,17.9-1.2,13,0,19,5.4,19,14.8,0,17.9-17.7,42.2-61.4,78.8-1.5,5.6-2.5,9.2-3.6,13.5h102.2v-37.1h-27.1c15.6-17.1,29-44.7,29-63.6Z"/>
  </g>
  <g>
    <path class="cls-1" d="M345.2,95.8c0,18.2-13.1,24.6-28.4,24.6s-18.6-2.8-23.8-8.3v7.4h-13.8V54.8h13.8v24.5c5.2-5.4,13.5-8.3,23.8-8.3,15.3,0,28.4,6.5,28.4,24.7ZM331.3,95.8c0-9.5-6.7-13.1-19.1-13.1s-19.2,3.6-19.2,13.1,6.8,13,19.2,13,19.1-3.6,19.1-13Z"/>
    <path class="cls-1" d="M400.3,102.5h13.8c-3.2,12.1-15,17.9-32.6,17.9s-32.2-7.1-32.2-24.6,13.7-24.7,33-24.7,32.6,6.2,32.6,27.9h-51.5c1.5,7.6,8.8,10.1,18.1,10.1s15.4-1.8,18.9-6.6ZM363.8,90.2h36.2c-2.3-6.7-9.2-8.6-17.9-8.6s-16.1,1.9-18.3,8.6Z"/>
    <path class="cls-1" d="M440.7,83.5v13.8c0,9.2,1.8,11.6,10.2,11.6s6.8,0,12.4-.8v11.2c-4.6.8-9.9,1.2-16.3,1.2-12.3,0-20.2-4.6-20.2-15.1v-21.8h-12.6v-11.6h12.6v-9.9l13.9-4v13.8h22.6v11.6h-22.6Z"/>
  </g>
</svg>